<?xml version="1.0" encoding="UTF-8"?>
<svg id="Layer_1" xmlns="http://www.w3.org/2000/svg" version="1.1" viewBox="0 0 1536 1200">
  <!-- Generator: Adobe Illustrator 30.0.0, SVG Export Plug-In . SVG Version: 2.1.1 Build 123)  -->
  <g id="Generative_Object">
    <rect x="11.36" y="-197.72" width="1563.65" height="1605.91" style="fill: #fff;"/>
    <path d="M391.26,1078.9c.21.3,3.91.35,6.11,3.92.91,1.48.68,14,6.87,16.47h245.85c9-5.27,20.51-14.55,16.03-26.66-1.73-4.68-10.01-9.15-12.22-14.11,65.28,5.15,121.99,27.48,187.06,36.07,39.43,5.21,112.39,12.64,150.41,9.41.36,1.79,3.02,4.87,3.05,6.27.5,19.04,2.09,36.44-19.85,34.5l-895.59-1.57-.76,34.5c-4.58.69-2.97-4.19-3.05-7.06-.6-21.45-1.63-42.83-1.53-64.3,6.67-1.24,35.17-26.11,37.41-25.88.35.04,2.63,2.73,5.34,4.7,4.91,3.58,9.36,12.23,17.56,14.11l206.15-1.57c5.97-4.87,8.72-11.07,6.11-18.82l-172.55-1.57c-8.13-3.22-17.54-6.13-20.61-15.68l3.82-6.27h230.58c-.58,12.68-3.21,13.78,3.82,23.52Z" style="fill: #fff5e7;"/>
    <path d="M974.58,1144.76l1.53,32.93c-299.21.53-598.67,4.18-897.88,0l.76-34.5,895.59,1.57Z" style="fill: #f8e4cd;"/>
    <path d="M1348.69,1177.7c-.16-2.57.24-5.28,0-7.84,2.68,6.74,7.43-11.03,7.64-11.76,39.73-143.8,69.44-292.73,125.21-431.28,5.75-14.28,18.83-34.7,22.91-47.05,1.51-4.59.92-3.17-1.53-7.06,11.24,5.59,14.29,11.6,15.27,24.31l-98.49,480.68c-23.65.43-47.38-.57-71.01,0Z" style="fill: #394150;"/>
    <path d="M1502.92,672.71c2.45,3.88,3.04,2.47,1.53,7.06-4.07,12.34-17.16,32.77-22.91,47.05-55.77,138.54-85.48,287.47-125.21,431.28-.2.73-4.96,18.5-7.64,11.76-4.21-45.45-14.32-143.37-9.16-185.06,5.98-48.36,66.87-240.6,91.62-281.51,15.68-25.91,41.43-45.67,71.77-30.58Z" style="fill: #535764;"/>
    <path d="M956.25,936.18c-2.33,6.76-9.55,41.61-14.51,43.91-66.16,3.31-132.36,11.24-198.51,14.11-17.42.76-50.58,4.86-65.66,3.14-28.04-3.21-77.69-36.26-105.36-39.21-5.79-.62-59.43,3.2-64.13,4.7-16.45,5.26-38.6,47.63-49.63,58.03l-4.58-4.7c15.81-14.51,40.62-59.17,60.32-67.44,62.19-26.09,110.63,17.94,172.55,14.11l215.31-20.39,25.2-51.75c4.62,14.71,20.93,32.16,29.01,45.48Z" style="fill: #ee885c;"/>
    <path d="M1032.6,479.82c9.33,24.41,18.39,49.31,22.91,75.28-14.62,10.25-34.74,70.2-42.76,89.39-50.89-15.05-77.48-56.04-71.77-110.56,2.02-19.25,14.42-37.74,16.03-57.24-17.24,37.2-28.68,77.79-9.93,116.84l-9.16-17.25c-10.23-39.96,6.52-70.86,18.32-107.43,13.23-.23,49.06-17.43,61.08-25.09,6.37,11.55,10.57,23.77,15.27,36.07Z" style="fill: #2a3142;"/>
    <path d="M183.59,440.61c-.18,9.21,1.55,18.44,3.05,27.44.22,1.31,2.63-.19,3.05,2.35,23.16,139.04,44.69,280.73,70.24,420.3,1.03,5.64,3.57,11.82,4.58,17.25,3.99,21.35,4.83,44.01,13.74,64.3-15.12,2.86-24.78,3.14-33.59-11.76l-33.59-174.86c1.17-16.36-6.76-39.78-9.16-56.46-11.3-78.59-38.77-183.26-42.76-257.98-1.15-21.62,1.52-31.42,24.43-30.58Z" style="fill: #636773;"/>
    <path d="M211.08,785.63c-5.4,75.35-53.33,179.37-59.55,256.41-.5,6.24-.4,13.61,1.53,19.6,3.07,9.55,12.48,12.47,20.61,15.68l172.55,1.57c2.62,7.75-.14,13.95-6.11,18.82l-206.15,1.57c-8.2-1.88-12.65-10.54-17.56-14.11-6.5-9.04-6.57-19.81-6.11-30.58l91.62-325.42c2.4,16.68,10.34,40.1,9.16,56.46Z" style="fill: #2c3545;"/>
    <path d="M339.34,882.86l-74.82,25.09c-1.01-5.43-3.55-11.61-4.58-17.25l70.24-21.17-77.88-374.82-62.61-24.31c-.42-2.54-2.83-1.04-3.05-2.35-1.5-9.01-3.23-18.24-3.05-27.44,6.73.25,52.99,17.34,60.32,21.96,4.52,2.85,7.44,5.21,9.93,10.19,28.23,136.71,59.03,273.02,85.51,410.1Z" style="fill: #2b3643;"/>
    <path d="M278.26,972.25c-8.91-20.29-9.75-42.94-13.74-64.3l74.82-25.09c2.33,12.09,14.25,51.35,9.16,60.38-1.9,3.37-63.42,27.72-70.24,29.01Z" style="fill: #e7cfbd;"/>
    <path d="M434.02,1017.73c-1.4,5.5-11.58,37.42-10.69,39.99,4.49,12.89,10.26-12.85,11.45-13.33,15.31-6.16,22.65,4.01,19.85,18.82l-64.9-3.14c.78-5.22,17.25-42.75,20.61-43.91,5.77-1.98,18.23,1.61,23.67,1.57Z" style="fill: #bcb9b7;"/>
    <path d="M924.19,428.06c-.18-.37-3.43-.31-6.11-5.49-1.58-3.05,1.68-5.99,1.53-6.27-1.76-3.33-7.62-4.63-9.16-7.84s1.57-5.21,1.53-5.49l33.59-.78c-4.69,10.04-9.38,22.79-21.38,25.88Z" style="fill: #f27758;"/>
    <path d="M458.45,1020.87c-.1.1.29.54-1.53,1.57s-1.42,1.54-1.53,1.57c-4.51,1.23-13.52-.28-18.32-1.57.53-1.72,2.12-2.51,1.53-4.7,7.59.07,11.68,1.72,15.27-1.57l4.58,4.7Z" style="fill: #b4b2b1;"/>
    <path d="M1153.24,493.93c-25.82,19.59-53.19,37.05-80.17,54.89-4.08,2.7-16.79,5.73-17.56,6.27-4.52-25.97-13.58-50.87-22.91-75.28,34.06-33.63,41.95-80.67,45.81-127.03,12.45,59.35,14.21,110.4,74.82,141.14Z" style="fill: #fab986;"/>
    <path d="M994.43,1110.26c-.04-1.41-2.7-4.49-3.05-6.27,65.34-5.55,82.48-102.9,113-148.99,5.66,4,35.46,22.46,37.41,25.09,2.45,3.3,2.09,1.2.76,5.49-2.17,7.01-26.35,26.48-32.07,34.5-27.05,38-28.01,62.85-78.64,83.9-9.63,4-28.87,11.77-37.41,6.27Z" style="fill: #fcbb65;"/>
    <g>
      <path d="M1327.32,821.7c5.05,54.07,4.56,109.85,12.22,163.1-5.15,41.69,4.95,139.6,9.16,185.06.24,2.56-.16,5.27,0,7.84-124.26,3.02-248.38-.22-372.59,0l-1.53-32.93c21.94,1.93,20.35-15.47,19.85-34.5,8.54,5.5,27.78-2.27,37.41-6.27,50.64-21.06,51.59-45.9,78.64-83.9,5.71-8.02,29.9-27.49,32.07-34.5,1.33-4.29,1.68-2.19-.76-5.49-1.96-2.64-31.75-21.09-37.41-25.09-19.62-13.86-42.67-30.75-63.37-42.34-10.45-5.85-59.5-33.34-67.95-24.31-1.71,1.83-14.58,41.4-16.8,47.83-8.08-13.32-24.39-30.77-29.01-45.48-13.05-41.57,30.96-109.71,47.34-149.77,13.07-31.98,24.86-64.58,38.18-96.45,8.02-19.19,28.13-79.14,42.76-89.39.77-.54,13.48-3.57,17.56-6.27,26.98-17.84,54.35-35.3,80.17-54.89,22.9,11.61,46.83,14.91,69.48,31.37,79.72,57.93,95.98,204.19,104.6,296.4Z" style="fill: #ffdd94;"/>
      <path d="M1262.42,733.88c8.38.05-21.29,111.82-23.67,119.97-10.55,36.2-22.87,72.67-40.47,105.86,25-59.93,42.01-122.95,58.79-185.84l5.34-39.99Z" style="fill: #f39f4e;"/>
      <path d="M1084.52,570.78c-12.63,11.56-25.89,22.41-44.28,19.6,16.72-2.4,30.59-10.55,44.28-19.6Z" style="fill: #f7b364;"/>
      <path d="M1084.52,570.78c1.27-1.16,2.93-6.51,6.11-3.92-1.24,3.11-4.98,3.18-6.11,3.92Z" style="fill: #f7b364;"/>
    </g>
    <path d="M1076.89,346.51c1.94,2.34,1.08,4.14,1.53,6.27-3.86,46.36-11.75,93.4-45.81,127.03-4.7-12.3-8.9-24.52-15.27-36.07,24.54-15.63,44.9-37.08,51.92-66.65,1.58-6.65.31-25.13,1.53-28.23.51-1.31,5.86-2.13,6.11-2.35Z" style="fill: #f0875c;"/>
    <g>
      <path d="M1327.32,821.7c-8.62-92.21-24.88-238.48-104.6-296.4-22.65-16.46-46.58-19.75-69.48-31.37-60.61-30.74-62.38-81.8-74.82-141.14-.45-2.13.42-3.94-1.53-6.27,11.94-10.56,22.83-18.6,24.43-36.85,1.86-21.24-10.38-47.3-34.36-39.99-18.13,5.53-15.72,33.4-38.18,26.66-7.31-2.19-14.55-13.01-19.85-15.68-13.6-6.87-30.15-10.29-44.28-18.82-25.6-15.45-45.73-40.66-56.5-69-22.32,37.54-15.53,73.07-8.4,112.92-60.48-40.07-59.96-120.48,2.29-159.96,82.95-52.61,199.8-102.83,274.1-7.06,44.39,57.22,28.88,137.19,80.17,184.27,15.74,14.45,36.3,22.37,51.15,39.99,39.53,46.9,27.48,118.27,42.76,175.65,11.4,42.83,43.8,83.78,51.92,125.46,12.37,63.55-7.26,139.46-74.82,157.61Z" style="fill: #2a3241;"/>
      <path d="M1361.67,682.12c5.09,14.49,4.44,30.22,3.05,45.48l-3.05-45.48Z" style="fill: #3d4350;"/>
      <path d="M1361.67,737.01c2.46,2.62-3.35,17.56-4.58,17.25-1.23-5.56,2.63-12.17,4.58-17.25Z" style="fill: #4b4f5b;"/>
      <path d="M1363.2,729.17c1.18,0,1.17,6.28,0,6.27s-1.17-6.28,0-6.27Z" style="fill: #464a57;"/>
    </g>
    <path d="M653.91,1058.51c2.2,4.96,10.49,9.44,12.22,14.11-12.12-.26-15.3,2.53-24.43-4.7-1.96-1.56-4.02-7.14-6.11-9.41,5.51.81,12.51-.46,18.32,0Z" style="fill: #b0b1b6;"/>
    <g>
      <path d="M1076.89,346.51c-.25.22-5.59,1.04-6.11,2.35-1.22,3.1.05,21.58-1.53,28.23-7.02,29.58-27.38,51.02-51.92,66.65-12.02,7.66-47.85,24.86-61.08,25.09-26.89.47-20.89-17.73-25.96-32.15-1.16-3.3-4.64-5.57-6.11-8.63,12-3.08,16.69-15.84,21.38-25.88l-33.59.78c-4.46-32.78-7.81-10.63-22.14-23.52-9.97-8.97,12.47-30.61,14.51-43.13,2.33-14.36-2.7-20.07-4.58-30.58-7.13-39.84-13.92-75.38,8.4-112.92,10.77,28.34,30.9,53.55,56.5,69,14.13,8.53,30.68,11.95,44.28,18.82,5.3,2.68,12.54,13.49,19.85,15.68,22.46,6.74,20.05-21.13,38.18-26.66,23.98-7.31,36.22,18.76,34.36,39.99-1.6,18.26-12.49,26.29-24.43,36.85Z" style="fill: #fab986;"/>
      <path d="M978.4,327.69c27.64.64,14.26,35.21-6.11,40.78-41.22,11.26-23.9-41.48,6.11-40.78Z" style="fill: #f8a47d;"/>
      <path d="M956.25,312.01l-15.27,2.35,3.05,16.47c-1.82,1.09-3.64,3.53-5.34,3.14-6.25-1.72-7.64-17.36-8.4-18.04-1.77-1.56-13.05.18-12.22-4.7,13.93-5.71,24.22-3.45,38.94-2.35l-.76,3.14Z" style="fill: #1b2236;"/>
      <path d="M924.95,279.08c10.65-1.68,25.63,2.26,34.36,8.63-8.73.67-19.6-2.34-28.25-.78-5.11.92-17.71,11.03-21.38,9.41-10.48-4.63,11.4-16.64,15.27-17.25Z" style="fill: #1c2637;"/>
      <path d="M1071.54,285.35c23.73-5.07,21.6,45.47.76,43.13,19.71-3.36,17.81-50.91-2.29-39.99-6.44,3.5-4.49,14.34-9.93,16.47,2.15-6.51,3.26-17.85,11.45-19.6Z" style="fill: #f09267;"/>
      <path d="M956.25,312.01c-.44,5.5-7.45,15.97-12.22,18.82l-3.05-16.47,15.27-2.35Z" style="fill: #faf8f7;"/>
    </g>
    <path d="M259.94,890.7c-25.55-139.57-47.08-281.26-70.24-420.3l62.61,24.31,77.88,374.82-70.24,21.17Z" style="fill: #fcf7f0;"/>
    <path d="M582.14,1039.69c-1.99-.16-16.8-.37-16.8.78,25.54-2.95,28.14,8.01,41.23,26.66-.82,1.08-25.15,1.45-26.72.78-1.82-.77-17-30.51-20.61-34.5,6.35.5,18.46.54,22.91,6.27Z" style="fill: #dedad9;"/>
    <path d="M635.58,1058.51c2.09,2.27,4.14,7.85,6.11,9.41-25.37,9.28-37.01-3.29-48.86-25.09,12.76,3.22,31.09,13.96,42.76,15.68Z" style="fill: #c3c2bf;"/>
    <path d="M507.31,1041.26l6.87,25.09c-4.55-3.01-22.75-.35-24.43-1.57-1.54-1.11-2.92-20.16-3.82-23.52,3.81,5.32,15.61,1.25,21.38,0Z" style="fill: #d0cdcb;"/>
    <path d="M455.4,1024.01c-1.58,3.35,1.09,17.54-2.29,18.82s-13.76-.97-18.32,0c-1.53-.98,1.43-17.58,2.29-20.39,4.8,1.28,13.82,2.8,18.32,1.57Z" style="fill: #d0cecb;"/>
    <path d="M562.29,1045.96h-21.38c-1.93-1.89-2.93-6.52-4.58-9.41,2.75-.73,17.42-3.37,18.32-3.14,2.37.61,7.24,9.95,7.64,12.55Z" style="fill: #b7b7b8;"/>
    <g>
      <path d="M438.6,1017.73c.59,2.2-1,2.99-1.53,4.7-.86,2.81-3.82,19.41-2.29,20.39,4.56-.97,14.78,1.33,18.32,0s.71-15.47,2.29-18.82c.1-.03-.37-.49,1.53-1.57,5.95,8.94-5.14,10.79,7.64,14.11-1.95.25-6.13-.74-5.34,3.14l20.61-3.14c.21.02.07-2.77,3.82-1.57,2.97,2.03,1.52,3.38,2.29,6.27.89,3.36,2.28,22.41,3.82,23.52,1.68,1.22,19.88-1.45,24.43,1.57l-6.87-25.09c.34-.07,2.72-4.08,5.34-4.7,5.23-1.24,14.08.9,19.85,0-3.11-8.15-.89-9.31,3.82-1.57.23.38-.22,1.18,0,1.57,1.65,2.89,2.65,7.52,4.58,9.41,6.02,5.91,13.64,2.17,22.14,3.14l-.76-3.14c-.4-2.6-5.27-11.94-7.64-12.55.16,0-.47-3.18.76-3.14.64.02,1.93,2.99,3.82,3.14,3.61,3.99,18.79,33.74,20.61,34.5,1.57.66,25.9.3,26.72-.78-13.09-18.66-15.69-29.61-41.23-26.66,0-1.16,14.81-.95,16.8-.78,7.24.59,6.9,2.18,10.69,3.14,11.86,21.8,23.49,34.38,48.86,25.09,9.14,7.23,12.31,4.45,24.43,4.7,4.47,12.11-7.03,21.39-16.03,26.66h-245.85c-6.19-2.46-5.96-14.98-6.87-16.47-2.2-3.57-5.89-3.62-6.11-3.92-2.02-4.9-2.28-13.76-1.53-18.82l64.9,3.14c2.8-14.81-4.54-24.98-19.85-18.82-1.2.48-6.96,26.22-11.45,13.33-.9-2.57,9.29-34.49,10.69-39.99,1.52-.01,3.07-.01,4.58,0Z" style="fill: #2d3849;"/>
      <path d="M514.19,1044.4c21.77-2.11,25.05.24,31.3,21.17-21.86,3.54-28.23,2.07-31.3-21.17Z" style="fill: #e1ddda;"/>
      <path d="M546.25,1055.37c12.59.52,24.79-4.38,28.25,11.76-10.38-.15-29.14,3.31-28.25-11.76Z" style="fill: #dcdad6;"/>
      <path d="M482.88,1056.94c15.05,9.24-19.67,6.97-23.67,6.27-.85-.34-.85-6.95,2.29-7.84,2.91,7.47,15.89,5.03,21.38,1.57Z" style="fill: #cac8c5;"/>
      <path d="M515.71,1038.12c4.18-1.18,18.17-1.06,20.61,3.92-3.9,1.11-24.54,2.06-24.43-1.57,1.21-.17,3.2-2.18,3.82-2.35Z" style="fill: #faf6f2;"/>
      <path d="M459.21,1050.67c2.66.37,27.62-1.97,25.2,3.92-7.24-2.53-20.9,2.7-25.2-3.92Z" style="fill: #f2efea;"/>
      <path d="M562.29,1045.96l.76,3.14c-8.5-.96-16.12,2.78-22.14-3.14h21.38Z" style="fill: #f6f1ec;"/>
      <path d="M459.21,1045.96l23.67,2.35c-5.97.16-20.43,3.86-23.67-2.35Z" style="fill: #f0eae1;"/>
      <path d="M482.88,1056.94c-5.49,3.46-18.47,5.9-21.38-1.57,2.29-.65,19.7.54,21.38,1.57Z" style="fill: #efe9e4;"/>
      <path d="M544.73,1050.67l22.14,2.35c-4.51.05-21.54,3.98-22.14-2.35Z" style="fill: #f5f0eb;"/>
      <path d="M460.74,1041.26c2.98-.99,18.86-.88,22.14,2.35l-23.67.78c-1.5-.78,1.07-2.98,1.53-3.14Z" style="fill: #f2e6dd;"/>
      <path d="M464.56,1036.55c4.05-.52,11.05-.31,15.27,0l-20.61,3.14c-.78-3.87,3.4-2.89,5.34-3.14Z" style="fill: #eedecf;"/>
    </g>
    <g>
      <path d="M1104.37,955c-30.52,46.08-47.65,143.43-113,148.99-38.02,3.23-110.98-4.2-150.41-9.41-65.06-8.59-121.78-30.92-187.06-36.07-5.81-.46-12.82.81-18.32,0-11.67-1.72-29.99-12.46-42.76-15.68-3.79-.96-3.45-2.55-10.69-3.14-4.45-5.73-16.56-5.77-22.91-6.27-1.89-.15-3.18-3.12-3.82-3.14-1.23-.04-.61,3.13-.76,3.14-5.64.11-13.39-1.36-18.32,1.57-4.71-7.74-6.93-6.58-3.82,1.57-5.77.9-14.62-1.24-19.85,0-2.62.62-5,4.63-5.34,4.7-5.77,1.25-17.56,5.32-21.38,0-.77-2.9.68-4.25-2.29-6.27-3.75-1.21-3.61,1.58-3.82,1.57-4.22-.31-11.22-.52-15.27,0-12.77-3.32-1.69-5.18-7.64-14.11,1.82-1.03,1.42-1.47,1.53-1.57,11.03-10.39,33.18-52.76,49.63-58.03,4.7-1.5,58.34-5.32,64.13-4.7,27.68,2.95,77.32,36,105.36,39.21,15.09,1.73,48.25-2.38,65.66-3.14,66.15-2.87,132.35-10.81,198.51-14.11,4.96-2.31,12.17-37.16,14.51-43.91s15.08-46,16.8-47.83c8.45-9.03,57.5,18.46,67.95,24.31,20.7,11.59,43.75,28.48,63.37,42.34Z" style="fill: #fab785;"/>
      <path d="M554.65,1033.42c-.9-.23-15.58,2.4-18.32,3.14-.22-.39.23-1.19,0-1.57,4.93-2.93,12.68-1.46,18.32-1.57Z" style="fill: #fff;"/>
      <path d="M515.71,972.25c12.48-2.76,36,1.43,49.63.78,0,2.39-42.22-.08-46.57.78-13.24,2.64-43.59,46.43-56.5,56.46,7.63-11.56,42.29-55.56,53.45-58.03Z" style="fill: #d77e59;"/>
      <path d="M513.42,1011.46c-7.19,2.21-11.09,6.61-15.27,12.55-2,1.25-15.03,12.78-16.8,8.63,4.78-2.37,26.23-25.51,28.25-25.88,4.05-.74-.07,3.3,1.53,3.14,12.15-1.26,24.26-3.36,36.65-3.14l16.8,4.7c-13.58-.92-38.62-3.85-51.15,0Z" style="fill: #f18c60;"/>
      <path d="M529.46,989.51c2.99-.7,35.88.5,35.88,2.35l-38.94.78c-1.62-.79,2.84-3.09,3.05-3.14Z" style="fill: #dd8359;"/>
      <path d="M513.42,1011.46c-.93,7.84-10.5,9.56-15.27,12.55,4.18-5.93,8.08-10.34,15.27-12.55Z" style="fill: #faf7f4;"/>
    </g>
  </g>
</svg>